<?xml version="1.0" standalone="no"?>
<!DOCTYPE svg PUBLIC "-//W3C//DTD SVG 20010904//EN"
 "http://www.w3.org/TR/2001/REC-SVG-20010904/DTD/svg10.dtd">
<svg version="1.0" xmlns="http://www.w3.org/2000/svg"
 width="1704.000000pt" height="1704.000000pt" viewBox="0 0 1704.000000 1704.000000"
 preserveAspectRatio="xMidYMid meet">
<metadata>
Created by potrace 1.11, written by Peter Selinger 2001-2013
</metadata>
<g transform="translate(0.000000,1704.000000) scale(0.100000,-0.100000)"
fill="#000000" stroke="none">
<path d="M12470 16663 c-679 -161 -1854 -440 -2610 -619 -756 -179 -2390 -566
-3630 -860 -1240 -294 -2959 -702 -3819 -905 -860 -203 -1733 -410 -1941 -459
-207 -50 -380 -90 -383 -90 -4 0 -7 -8 -7 -17 0 -10 218 -938 485 -2063 266
-1125 874 -3690 1350 -5700 476 -2010 983 -4150 1126 -4755 144 -605 264
-1103 267 -1106 4 -3 619 140 1367 318 1280 304 2368 562 5225 1238 663 157
1842 436 2620 621 3427 813 3861 915 4133 980 225 53 287 71 287 83 0 9 -137
594 -305 1301 -705 2976 -2724 11499 -2816 11890 -56 234 -104 428 -107 431
-4 3 -563 -127 -1242 -288z m-552 -6979 c262 -55 433 -271 449 -569 8 -151
-20 -261 -95 -369 l-27 -39 290 -284 c160 -155 287 -283 283 -283 -4 0 -168
-38 -364 -85 -197 -47 -363 -85 -369 -85 -5 0 -104 110 -220 245 -115 134
-217 244 -226 244 -18 1 -25 38 69 -361 43 -181 47 -208 33 -212 -65 -18 -624
-147 -626 -144 -2 2 -95 390 -207 863 -133 559 -200 862 -194 866 18 11 349
105 556 157 317 81 463 94 648 56z m-1384 -271 c16 -56 106 -448 106 -463 0
-10 -10 -20 -22 -23 -405 -94 -645 -152 -652 -158 -10 -9 11 -119 23 -119 4 0
149 33 322 74 173 41 315 74 316 73 5 -6 115 -488 112 -492 -2 -2 -145 -37
-317 -78 -172 -40 -314 -76 -317 -78 -4 -5 20 -108 28 -115 2 -3 168 34 367
81 200 48 366 83 370 78 7 -8 111 -435 114 -469 1 -14 -114 -44 -688 -180
-380 -90 -691 -162 -692 -161 -4 5 -404 1704 -404 1717 0 12 150 51 658 171
361 87 660 157 664 158 4 1 9 -7 12 -16z m-1419 -335 c-15 -42 -255 -942 -255
-956 0 -9 93 -111 207 -226 114 -116 275 -279 357 -363 83 -84 148 -155 145
-158 -6 -5 -712 -175 -728 -175 -4 0 -120 135 -257 299 -137 164 -250 298
-252 296 -1 -1 33 -155 77 -341 44 -186 79 -339 78 -339 -13 -9 -634 -150
-638 -146 -9 8 -413 1720 -408 1725 5 5 633 154 637 151 1 -1 38 -151 81 -334
44 -183 81 -334 83 -337 3 -2 33 162 68 364 34 202 66 371 70 375 7 8 689 174
722 176 10 1 15 -4 13 -11z m-2005 -529 c100 -23 274 -103 268 -121 -3 -7 -35
-103 -73 -213 -38 -110 -69 -201 -70 -202 0 -1 -30 9 -66 22 -188 68 -358 49
-367 -42 -5 -48 25 -61 216 -93 185 -32 265 -55 355 -103 157 -83 261 -262
261 -447 -1 -151 -56 -272 -179 -395 -93 -93 -188 -151 -320 -193 -147 -48
-215 -57 -400 -56 -141 1 -183 4 -249 22 -82 23 -162 56 -232 97 l-42 25 39
112 c22 62 55 159 75 215 l36 102 26 -13 c75 -39 177 -60 287 -61 156 0 225
30 225 97 0 40 -31 51 -223 83 -176 29 -252 51 -349 102 -131 69 -231 211
-259 367 -36 211 77 433 291 571 212 138 496 185 750 124z m-1206 -730 c129
-544 143 -626 127 -758 -44 -362 -276 -619 -649 -718 -131 -35 -345 -38 -463
-5 -261 71 -469 269 -560 535 -31 89 -254 1025 -247 1033 7 6 631 154 636 150
2 -2 55 -221 118 -486 67 -283 122 -495 133 -514 113 -182 370 -113 371 100 0
31 -43 234 -110 514 -60 255 -110 468 -110 474 0 9 627 167 637 161 2 -1 54
-219 117 -486z m-1890 44 c9 -33 126 -533 126 -541 0 -4 -103 -32 -230 -62
-185 -43 -230 -57 -230 -70 0 -9 60 -271 134 -581 74 -310 133 -565 131 -567
-5 -5 -637 -153 -640 -150 -1 2 -63 261 -138 577 -75 315 -138 575 -140 577
-2 3 -107 -20 -233 -50 -126 -30 -231 -50 -234 -45 -12 19 -133 549 -127 555
7 8 1530 372 1559 373 9 1 19 -7 22 -16z m5660 -1000 c20 -74 127 -545 124
-548 -2 -3 -101 -27 -219 -55 -118 -27 -221 -53 -230 -58 -13 -6 3 -85 122
-582 75 -316 134 -578 130 -581 -9 -8 -630 -153 -635 -148 -2 2 -65 262 -140
578 -74 316 -137 575 -138 577 -2 1 -106 -22 -232 -52 -126 -30 -232 -51 -236
-47 -10 12 -135 552 -129 558 6 5 1543 373 1566 374 6 1 14 -7 17 -16z m-1797
-482 c79 -23 168 -60 219 -91 l32 -20 -71 -211 c-81 -236 -64 -218 -172 -178
-74 28 -244 33 -289 9 -38 -20 -60 -64 -46 -91 16 -28 38 -35 217 -64 250 -42
363 -87 464 -185 169 -165 198 -430 69 -644 -43 -72 -158 -182 -237 -228 -286
-168 -716 -191 -998 -52 -118 57 -114 31 -34 264 38 111 72 206 74 210 3 4 44
-6 92 -24 83 -29 97 -31 228 -31 115 0 146 3 172 18 56 30 70 85 30 111 -12 8
-102 29 -199 45 -184 32 -289 62 -367 108 -188 110 -289 350 -236 558 25 97
72 181 144 257 126 135 279 215 484 254 105 20 330 12 424 -15z m-1824 -406
c322 -56 569 -253 694 -553 47 -112 67 -219 67 -357 0 -162 -23 -259 -94 -400
-134 -266 -381 -444 -722 -521 -117 -27 -349 -24 -463 5 -352 90 -605 355
-680 713 -19 90 -19 277 0 367 72 343 337 609 710 716 164 46 334 57 488 30z
m-1770 -441 c268 -59 433 -265 454 -565 12 -173 -42 -316 -166 -440 -119 -118
-259 -180 -504 -224 -81 -14 -97 -20 -93 -34 16 -51 126 -534 124 -537 -7 -7
-633 -152 -637 -148 -11 11 -410 1719 -403 1726 19 19 670 193 829 222 109 20
307 20 396 0z m4047 -2371 c102 -157 186 -289 188 -293 1 -4 -23 -13 -55 -20
-32 -7 -63 -14 -69 -17 -6 -2 -32 31 -58 74 -25 43 -50 84 -54 91 -7 10 -30 7
-112 -12 -56 -14 -105 -27 -107 -30 -2 -2 -8 -48 -14 -102 -5 -53 -11 -99 -13
-101 -4 -4 -112 -32 -126 -33 -4 0 56 562 72 675 2 16 18 23 73 37 39 9 75 17
80 17 6 1 93 -128 195 -286z m-677 35 c-47 -84 -93 -167 -104 -183 l-18 -31
174 -134 c130 -101 170 -136 157 -141 -9 -3 -47 -12 -83 -19 l-66 -13 -124
101 c-68 56 -126 102 -130 102 -3 0 -14 -15 -23 -32 -17 -32 -16 -37 3 -121
12 -48 21 -94 21 -101 0 -12 -116 -45 -123 -35 -4 6 -147 614 -147 626 0 9 83
33 114 33 7 0 25 -55 46 -145 18 -80 36 -145 39 -145 3 0 47 75 96 166 50 92
95 173 100 181 11 14 93 41 132 42 20 1 13 -15 -64 -151z m-534 -327 c53 -226
71 -315 62 -320 -14 -9 -161 -44 -165 -40 -3 4 -356 401 -364 409 -6 7 -3 -7
56 -254 28 -116 49 -213 47 -216 -5 -8 -115 -33 -120 -28 -6 5 -155 632 -151
635 1 1 39 11 84 21 l83 20 186 -209 c103 -114 189 -207 191 -204 2 2 -3 27
-11 57 -30 103 -98 401 -94 411 3 11 92 36 112 33 5 -2 43 -143 84 -315z
m-753 -181 c101 -157 184 -287 184 -290 0 -6 -104 -30 -127 -30 -7 0 -35 38
-63 85 -28 47 -54 85 -58 85 -12 0 -203 -47 -206 -51 -3 -2 -9 -48 -14 -102
-5 -54 -11 -100 -14 -102 -2 -2 -32 -11 -66 -19 l-62 -14 1 26 c0 15 17 171
37 347 l37 320 65 17 c36 9 73 16 84 15 13 -1 77 -92 202 -287z m-880 -155
c54 -231 63 -260 80 -257 11 1 84 18 164 37 79 18 148 32 152 29 8 -5 23 -93
16 -99 -5 -5 -425 -105 -442 -105 -8 0 -38 107 -84 303 -40 167 -72 311 -72
319 0 10 16 19 43 26 83 20 75 35 143 -253z m-511 143 c3 -13 37 -155 75 -317
38 -162 68 -297 66 -299 -6 -6 -118 -34 -122 -30 -6 6 -152 633 -148 637 3 3
98 28 116 30 4 1 10 -9 13 -21z m-313 -88 c53 -15 94 -60 108 -120 11 -44 10
-57 -5 -95 -9 -25 -30 -55 -47 -68 l-30 -24 32 -13 c40 -17 72 -59 104 -140
15 -36 36 -78 47 -93 11 -16 19 -30 17 -31 -1 -2 -31 -10 -66 -19 l-63 -15
-20 31 c-10 18 -28 57 -40 87 -25 66 -64 110 -98 110 -50 0 -141 -24 -141 -37
0 -7 11 -61 25 -119 14 -58 25 -112 25 -119 0 -11 -116 -44 -123 -34 -7 9
-150 630 -146 633 10 10 308 75 344 75 22 1 57 -4 77 -9z m-595 -156 c40 -23
103 -107 90 -120 -3 -3 -31 -12 -63 -21 -48 -12 -59 -12 -63 -1 -2 7 -17 25
-32 40 -67 68 -198 7 -169 -78 16 -44 44 -56 161 -64 178 -14 249 -70 249
-197 0 -62 -25 -109 -79 -148 -130 -95 -326 -83 -397 24 -14 22 -24 47 -21 54
3 8 31 19 62 25 56 12 57 11 82 -18 50 -59 157 -61 202 -3 24 29 26 51 10 86
-17 37 -53 49 -167 58 -157 12 -219 51 -237 152 -11 57 2 104 42 148 44 49 80
69 153 85 69 16 123 9 177 -22z"/>
<path d="M11493 9189 l-41 -10 14 -57 c7 -31 21 -92 31 -135 l17 -79 40 6 c99
16 151 68 151 151 0 43 -5 59 -25 80 -47 51 -99 63 -187 44z"/>
<path d="M5741 5349 c-47 -14 -106 -55 -136 -95 -82 -108 -72 -293 21 -403 85
-98 224 -126 334 -66 66 36 114 97 136 172 41 140 -31 309 -159 374 -48 25
-145 34 -196 18z"/>
<path d="M3862 5036 c-29 -8 -55 -16 -58 -18 -2 -3 9 -65 27 -138 l31 -132 27
7 c96 22 131 37 155 65 61 74 37 180 -50 216 -40 17 -62 16 -132 0z"/>
<path d="M8087 3293 c-9 -32 -19 -223 -12 -223 11 0 130 31 134 35 3 4 -77
148 -105 188 -12 18 -12 18 -17 0z"/>
<path d="M6116 2794 c-19 -191 -19 -197 -5 -192 8 3 40 11 72 18 31 7 57 18
57 24 -1 6 -27 55 -59 110 l-59 99 -6 -59z"/>
<path d="M4460 2473 c-36 -8 -67 -17 -69 -19 -6 -5 40 -184 48 -184 22 1 150
39 168 51 33 20 45 62 30 107 -20 62 -61 72 -177 45z"/>
</g>
</svg>
